# xmcd CD database file
#
# Track frame offsets:
#	150
#	14891
#	34467
#	51848
#	69527
#	85781
#	101238
#	119293
#	134487
#	153945
#	170670
#	186492
#	201002
#
# Disc length: 2938 seconds
#
# Revision: 0
# Processed by: cddbd v1.5.2PL0 Copyright (c) Steve Scherf et al.
# Submitted via: CDex 1.51
#
DISCID=c20b780d
DTITLE=Beverley Mahood - Unmistakable
DYEAR=2008
DGENRE=Country
TTITLE0=This Girl
TTITLE1=Rewrite History
TTITLE2=Freckles
TTITLE3=Unmistakable
TTITLE4=They Own This Town
TTITLE5=Could Have Had Me
TTITLE6=Good To Be Alive
TTITLE7=You Better Think Twice
TTITLE8=Come To Me
TTITLE9=Get There From Here
TTITLE10=You Get To Me
TTITLE11=Kick At The Can
TTITLE12=Anything Is Possible
EXTD=YEAR: 2008
EXTT0=
EXTT1=
EXTT2=
EXTT3=
EXTT4=
EXTT5=
EXTT6=
EXTT7=
EXTT8=
EXTT9=
EXTT10=
EXTT11=
EXTT12=
PLAYORDER=
